simulation
nRows=30
nColumns=15
endheader
time  TH_x TH_y TH_z SC_y  SC_z  SC_x  AC_y  AC_z  AC_x  GH_y  GH_z  GH_yy  EL_x  PS_y
0.213049  0.000000  0.000000  0.000000  -57.648468  22.090637  24.306527  44.708420  9.818960  6.676901  -156.525290  32.231070  164.828947  55.284320  0.000000
0.215748  0.000000  0.000000  0.000000  -57.974983  22.248710  24.369989  44.737868  10.076028  7.039714  -156.470694  32.756362  165.081492  55.630428  0.000000
0.218447  0.000000  0.000000  0.000000  -58.282225  22.391886  24.417695  44.762511  10.338302  7.384725  -156.436265  33.268342  165.339389  55.973084  0.000000
0.222066  0.000000  0.000000  0.000000  -58.659142  22.562885  24.457272  44.786345  10.696825  7.818226  -156.419851  33.936781  165.689376  56.427519  0.000000
0.225685  0.000000  0.000000  0.000000  -58.990997  22.712731  24.469362  44.797580  11.061657  8.218034  -156.434235  34.587887  166.039301  56.876368  0.000000
0.226770  0.000000  0.000000  0.000000  -59.081069  22.754000  24.467708  44.798168  11.172058  8.331469  -156.443891  34.780310  166.143459  57.009903  0.000000
0.227856  0.000000  0.000000  0.000000  -59.166692  22.793670  24.463670  44.797243  11.282617  8.442264  -156.455060  34.971407  166.246513  57.142884  0.000000
0.228235  0.000000  0.000000  0.000000  -59.195521  22.807141  24.461716  44.796489  11.321149  8.480405  -156.459036  35.037760  166.282008  57.189165  0.000000
0.228614  0.000000  0.000000  0.000000  -59.223812  22.820416  24.459497  44.795408  11.359548  8.518399  -156.462697  35.103908  166.317003  57.235397  0.000000
0.228992  0.000000  0.000000  0.000000  -59.251570  22.833489  24.457028  44.793916  11.397714  8.556362  -156.465719  35.169815  166.351253  57.281596  0.000000
0.229371  0.000000  0.000000  0.000000  -59.278800  22.846355  24.454321  44.791954  11.435541  8.594413  -156.467789  35.235441  166.384492  57.327780  0.000000
0.229750  0.000000  0.000000  0.000000  -59.305503  22.859014  24.451383  44.789519  11.472936  8.632658  -156.468658  35.300741  166.416464  57.373968  0.000000
0.230337  0.000000  0.000000  0.000000  -59.345817  22.878223  24.446376  44.784994  11.529840  8.692466  -156.467333  35.401161  166.462975  57.445574  0.000000
0.230924  0.000000  0.000000  0.000000  -59.384818  22.896963  24.440795  44.779937  11.585289  8.753131  -156.462563  35.500518  166.505181  57.517295  0.000000
0.231511  0.000000  0.000000  0.000000  -59.422456  22.915269  24.434593  44.774945  11.639129  8.814747  -156.454471  35.598637  166.542554  57.589183  0.000000
0.232098  0.000000  0.000000  0.000000  -59.458675  22.933186  24.427706  44.770631  11.691265  8.877313  -156.443403  35.695351  166.574789  57.661273  0.000000
0.232685  0.000000  0.000000  0.000000  -59.493430  22.950758  24.420070  44.767452  11.741650  8.940776  -156.429746  35.790514  166.601808  57.733577  0.000000
0.233336  0.000000  0.000000  0.000000  -59.530264  22.969906  24.410648  44.765494  11.795508  9.012186  -156.411914  35.894215  166.625838  57.814081  0.000000
0.233988  0.000000  0.000000  0.000000  -59.565251  22.988702  24.400191  44.765043  11.847174  9.084491  -156.391451  35.995782  166.643983  57.894779  0.000000
0.234640  0.000000  0.000000  0.000000  -59.598416  23.007157  24.388694  44.765613  11.896668  9.157600  -156.368325  36.095206  166.656793  57.975589  0.000000
0.235291  0.000000  0.000000  0.000000  -59.629804  23.025268  24.376181  44.766603  11.944042  9.231428  -156.342433  36.192544  166.664868  58.056424  0.000000
0.235943  0.000000  0.000000  0.000000  -59.659463  23.043028  24.362692  44.767542  11.989398  9.305874  -156.313794  36.287904  166.668790  58.137194  0.000000
0.236594  0.000000  0.000000  0.000000  -59.687429  23.060434  24.348268  44.768217  12.032889  9.380795  -156.282668  36.381418  166.669105  58.217824  0.000000
0.237424  0.000000  0.000000  0.000000  -59.720639  23.082106  24.328589  44.768803  12.085925  9.476608  -156.240271  36.498094  166.665119  58.320226  0.000000
0.238255  0.000000  0.000000  0.000000  -59.751179  23.103236  24.307495  44.769372  12.136755  9.572405  -156.196019  36.612295  166.657257  58.422151  0.000000
0.239085  0.000000  0.000000  0.000000  -59.779084  23.123846  24.285036  44.770284  12.185890  9.667691  -156.151310  36.724319  166.646678  58.523463  0.000000
0.239915  0.000000  0.000000  0.000000  -59.804408  23.143948  24.261271  44.771663  12.233817  9.762010  -156.107312  36.834471  166.634566  58.624019  0.000000
0.240745  0.000000  0.000000  0.000000  -59.827235  23.163534  24.236286  44.773272  12.280961  9.855006  -156.064767  36.943069  166.622057  58.723674  0.000000
0.241716  0.000000  0.000000  0.000000  -59.850925  23.185763  24.205652  44.774770  12.335598  9.961861  -156.017228  37.068633  166.608218  58.838975  0.000000
0.242688  0.000000  0.000000  0.000000  -59.871524  23.207190  24.173709  44.775140  12.390087  10.066357  -155.972332  37.193019  166.596377  58.952662  0.000000
